<svg version="1.2" xmlns="http://www.w3.org/2000/svg" viewBox="0 0 91 71" width="91" height="71">
	<title>quote-svg</title>
	<style>
		.s0 { fill: #ffffff;stroke: #000000;stroke-linejoin: round;stroke-width: 3 } 
	</style>
	<path id="Layer" class="s0" d="m30.8 33.4q5 2.2 7.8 6.6 2.8 4.4 2.8 10.4 0 8.6-5.4 14-5.4 5.2-13.8 5.2-8.4 0-14-5.4-5.4-5.4-5.4-13.8 0-4 1-8 1-4 4.4-12l11.6-28.8h19.8zm47.2 0q5 2.2 7.8 6.6 2.8 4.4 2.8 10.4 0 8.6-5.4 14-5.4 5.2-13.8 5.2-8.4 0-14-5.4-5.4-5.4-5.4-13.8 0-4 1-8 1-4 4.4-12l11.6-28.8h19.8z"/>
</svg>